<?xml version="1.0" encoding="UTF-8" standalone="no"?>
<svg
   xmlns:dc="http://purl.org/dc/elements/1.1/"
   xmlns:cc="http://web.resource.org/cc/"
   xmlns:rdf="http://www.w3.org/1999/02/22-rdf-syntax-ns#"
   xmlns:svg="http://www.w3.org/2000/svg"
   xmlns="http://www.w3.org/2000/svg"
   width="220px"
   height="220px"
   version="1.1"
   fill="none">
  <metadata>
    <rdf:RDF>
      <cc:Work>
        <dc:format>image/svg+xml</dc:format>
        <dc:type rdf:resource="http://purl.org/dc/dcmitype/StillImage" />
      </cc:Work>
    </rdf:RDF>
</metadata>
  <path
     d="M 110 55 C 79.64 55 55 79.64 55 110 C 55 140.36 79.64 165 110 165 C 136.24246 165 158.21121 146.60053 163.6875 122 L 134.1875 122 C 129.76472 130.8816 120.58968 137 110 137 C 95.096 137 83 124.904 83 110 C 83 95.096 95.096 83 110 83 C 120.19663 83 129.09382 88.65083 133.6875 97 L 163.4375 97 C 157.59313 72.905598 135.88327 55 110 55 z"
     style="fill:#000000"
     id="letterc"/>
  <path
     d="M 160,44 L 44,160 L 62,177 L 177,62 z"
     style="fill:#ff0000;stroke:#ffffff;stroke-width:2" 
     id="bar" />
  <path
     d="M 110 12 C 55.904 12 12 55.904 12 110 C 12 164.096 55.904 208 110 208 C 164.096 208 208 164.096 208 110 C 208 55.904 164.096 12 110 12 z M 110 32 C 153.056 32 188 66.944 188 110 C 188 153.056 153.056 188 110 188 C 66.944 188 32 153.056 32 110 C 32 66.944 66.944 32 110 32 z"
     style="fill:#ff0000"
     id="circle"/>
</svg>
